<mxfile host="app.diagrams.net" modified="2022-08-20T12:44:24.670Z" agent="5.0 (Windows NT 10.0; Win64; x64) AppleWebKit/537.36 (KHTML, like Gecko) Chrome/104.0.0.0 Safari/537.36" etag="HVf6ppwGRogj5oYL0SA0" version="20.2.5" type="github">
  <diagram id="cskhq7fbn27OKbOPeLyn" name="ページ1">
    <mxGraphModel dx="1021" dy="541" grid="1" gridSize="10" guides="1" tooltips="1" connect="1" arrows="1" fold="1" page="1" pageScale="1" pageWidth="827" pageHeight="1169" math="0" shadow="0">
      <root>
        <mxCell id="0" />
        <mxCell id="1" parent="0" />
        <mxCell id="SPAnLUfkHjXeqMdCx2lN-4" style="edgeStyle=orthogonalEdgeStyle;rounded=0;orthogonalLoop=1;jettySize=auto;html=1;entryX=0;entryY=0.5;entryDx=0;entryDy=0;shape=flexArrow;" edge="1" parent="1" source="SPAnLUfkHjXeqMdCx2lN-1" target="SPAnLUfkHjXeqMdCx2lN-2">
          <mxGeometry relative="1" as="geometry" />
        </mxCell>
        <mxCell id="SPAnLUfkHjXeqMdCx2lN-19" style="edgeStyle=orthogonalEdgeStyle;rounded=0;orthogonalLoop=1;jettySize=auto;html=1;entryX=0.5;entryY=0;entryDx=0;entryDy=0;shape=flexArrow;" edge="1" parent="1" source="SPAnLUfkHjXeqMdCx2lN-1" target="SPAnLUfkHjXeqMdCx2lN-18">
          <mxGeometry relative="1" as="geometry" />
        </mxCell>
        <mxCell id="SPAnLUfkHjXeqMdCx2lN-1" value="24V LFPバッテリ" style="rounded=0;whiteSpace=wrap;html=1;" vertex="1" parent="1">
          <mxGeometry x="80" y="70" width="120" height="60" as="geometry" />
        </mxCell>
        <mxCell id="SPAnLUfkHjXeqMdCx2lN-5" style="edgeStyle=orthogonalEdgeStyle;rounded=0;orthogonalLoop=1;jettySize=auto;html=1;entryX=0;entryY=0.5;entryDx=0;entryDy=0;shape=flexArrow;" edge="1" parent="1" source="SPAnLUfkHjXeqMdCx2lN-2" target="SPAnLUfkHjXeqMdCx2lN-3">
          <mxGeometry relative="1" as="geometry" />
        </mxCell>
        <mxCell id="SPAnLUfkHjXeqMdCx2lN-2" value="1次昇圧回路&lt;br&gt;24V -&amp;gt; 80V" style="rounded=0;whiteSpace=wrap;html=1;" vertex="1" parent="1">
          <mxGeometry x="280" y="70" width="120" height="60" as="geometry" />
        </mxCell>
        <mxCell id="SPAnLUfkHjXeqMdCx2lN-13" style="edgeStyle=orthogonalEdgeStyle;rounded=0;orthogonalLoop=1;jettySize=auto;html=1;entryX=0.5;entryY=0;entryDx=0;entryDy=0;shape=flexArrow;" edge="1" parent="1" source="SPAnLUfkHjXeqMdCx2lN-3" target="SPAnLUfkHjXeqMdCx2lN-6">
          <mxGeometry relative="1" as="geometry" />
        </mxCell>
        <mxCell id="SPAnLUfkHjXeqMdCx2lN-3" value="2次昇圧回路&lt;br&gt;80V -&amp;gt; 280V" style="rounded=0;whiteSpace=wrap;html=1;" vertex="1" parent="1">
          <mxGeometry x="480" y="70" width="120" height="60" as="geometry" />
        </mxCell>
        <mxCell id="SPAnLUfkHjXeqMdCx2lN-9" style="edgeStyle=orthogonalEdgeStyle;rounded=0;orthogonalLoop=1;jettySize=auto;html=1;entryX=0.5;entryY=0;entryDx=0;entryDy=0;shape=link;" edge="1" parent="1" source="SPAnLUfkHjXeqMdCx2lN-6" target="SPAnLUfkHjXeqMdCx2lN-8">
          <mxGeometry relative="1" as="geometry" />
        </mxCell>
        <mxCell id="SPAnLUfkHjXeqMdCx2lN-6" value="三相インバータ" style="rounded=0;whiteSpace=wrap;html=1;" vertex="1" parent="1">
          <mxGeometry x="480" y="190" width="120" height="60" as="geometry" />
        </mxCell>
        <mxCell id="SPAnLUfkHjXeqMdCx2lN-8" value="三相誘導&lt;br&gt;モータ" style="ellipse;whiteSpace=wrap;html=1;aspect=fixed;" vertex="1" parent="1">
          <mxGeometry x="500" y="320" width="80" height="80" as="geometry" />
        </mxCell>
        <mxCell id="SPAnLUfkHjXeqMdCx2lN-10" value="" style="endArrow=classic;html=1;rounded=0;exitX=0.167;exitY=1;exitDx=0;exitDy=0;exitPerimeter=0;shape=link;" edge="1" parent="1" source="SPAnLUfkHjXeqMdCx2lN-6" target="SPAnLUfkHjXeqMdCx2lN-8">
          <mxGeometry width="50" height="50" relative="1" as="geometry">
            <mxPoint x="390" y="250" as="sourcePoint" />
            <mxPoint x="440" y="200" as="targetPoint" />
            <Array as="points">
              <mxPoint x="500" y="320" />
            </Array>
          </mxGeometry>
        </mxCell>
        <mxCell id="SPAnLUfkHjXeqMdCx2lN-12" value="" style="endArrow=classic;html=1;rounded=0;entryX=1;entryY=0;entryDx=0;entryDy=0;exitX=0.839;exitY=0.994;exitDx=0;exitDy=0;exitPerimeter=0;shape=link;" edge="1" parent="1" source="SPAnLUfkHjXeqMdCx2lN-6" target="SPAnLUfkHjXeqMdCx2lN-8">
          <mxGeometry width="50" height="50" relative="1" as="geometry">
            <mxPoint x="580" y="270" as="sourcePoint" />
            <mxPoint x="650" y="310" as="targetPoint" />
            <Array as="points">
              <mxPoint x="580" y="320" />
            </Array>
          </mxGeometry>
        </mxCell>
        <mxCell id="SPAnLUfkHjXeqMdCx2lN-15" style="edgeStyle=orthogonalEdgeStyle;rounded=0;orthogonalLoop=1;jettySize=auto;html=1;entryX=0;entryY=0.5;entryDx=0;entryDy=0;" edge="1" parent="1" source="SPAnLUfkHjXeqMdCx2lN-14" target="SPAnLUfkHjXeqMdCx2lN-6">
          <mxGeometry relative="1" as="geometry" />
        </mxCell>
        <mxCell id="SPAnLUfkHjXeqMdCx2lN-16" style="edgeStyle=orthogonalEdgeStyle;rounded=0;orthogonalLoop=1;jettySize=auto;html=1;entryX=0.001;entryY=0.833;entryDx=0;entryDy=0;exitX=0.995;exitY=0.833;exitDx=0;exitDy=0;exitPerimeter=0;entryPerimeter=0;" edge="1" parent="1" source="SPAnLUfkHjXeqMdCx2lN-14" target="SPAnLUfkHjXeqMdCx2lN-6">
          <mxGeometry relative="1" as="geometry" />
        </mxCell>
        <mxCell id="SPAnLUfkHjXeqMdCx2lN-17" style="edgeStyle=orthogonalEdgeStyle;rounded=0;orthogonalLoop=1;jettySize=auto;html=1;entryX=0;entryY=0.167;entryDx=0;entryDy=0;entryPerimeter=0;exitX=1.001;exitY=0.167;exitDx=0;exitDy=0;exitPerimeter=0;" edge="1" parent="1" source="SPAnLUfkHjXeqMdCx2lN-14" target="SPAnLUfkHjXeqMdCx2lN-6">
          <mxGeometry relative="1" as="geometry" />
        </mxCell>
        <mxCell id="SPAnLUfkHjXeqMdCx2lN-14" value="Xiao RP2040" style="rounded=0;whiteSpace=wrap;html=1;" vertex="1" parent="1">
          <mxGeometry x="280" y="190" width="120" height="60" as="geometry" />
        </mxCell>
        <mxCell id="SPAnLUfkHjXeqMdCx2lN-20" style="edgeStyle=orthogonalEdgeStyle;rounded=0;orthogonalLoop=1;jettySize=auto;html=1;entryX=0;entryY=0.5;entryDx=0;entryDy=0;" edge="1" parent="1" source="SPAnLUfkHjXeqMdCx2lN-18" target="SPAnLUfkHjXeqMdCx2lN-14">
          <mxGeometry relative="1" as="geometry" />
        </mxCell>
        <mxCell id="SPAnLUfkHjXeqMdCx2lN-18" value="降圧回路&lt;br&gt;24V -&amp;gt; 5V" style="rounded=0;whiteSpace=wrap;html=1;" vertex="1" parent="1">
          <mxGeometry x="80" y="190" width="120" height="60" as="geometry" />
        </mxCell>
        <mxCell id="SPAnLUfkHjXeqMdCx2lN-22" value="" style="rounded=0;whiteSpace=wrap;html=1;" vertex="1" parent="1">
          <mxGeometry x="300" y="355" width="80" height="50" as="geometry" />
        </mxCell>
        <mxCell id="SPAnLUfkHjXeqMdCx2lN-24" style="edgeStyle=orthogonalEdgeStyle;rounded=0;orthogonalLoop=1;jettySize=auto;html=1;entryX=0.5;entryY=1;entryDx=0;entryDy=0;" edge="1" parent="1" source="SPAnLUfkHjXeqMdCx2lN-23" target="SPAnLUfkHjXeqMdCx2lN-14">
          <mxGeometry relative="1" as="geometry" />
        </mxCell>
        <mxCell id="SPAnLUfkHjXeqMdCx2lN-23" value="可変抵抗&lt;br&gt;Bカーブ" style="ellipse;whiteSpace=wrap;html=1;aspect=fixed;" vertex="1" parent="1">
          <mxGeometry x="300" y="315" width="80" height="80" as="geometry" />
        </mxCell>
      </root>
    </mxGraphModel>
  </diagram>
</mxfile>
